<svg xmlns="http://www.w3.org/2000/svg" viewBox="0 0 512 512" width="512" height="512" preserveAspectRatio="xMidYMid meet" style="width: 100%; height: 100%; transform: translate3d(0px, 0px, 0px); content-visibility: visible;"><defs><clipPath id="__lottie_element_2"><rect width="512" height="512" x="0" y="0"/></clipPath><clipPath id="__lottie_element_4"><path d="M0,0 L512,0 L512,512 L0,512z"/></clipPath><clipPath id="__lottie_element_4380"><path d="M0,0 L512,0 L512,512 L0,512z"/></clipPath></defs><g clip-path="url(#__lottie_element_2)"><g clip-path="url(#__lottie_element_4)" transform="matrix(1,0,0,1,0,0)" opacity="1" style="display: block;"><g transform="matrix(0.8285113573074341,0.010526738129556179,-0.008959412574768066,1.0002062320709229,290.4403076171875,249.6309356689453)" opacity="1" style="display: block;"><g opacity="1" transform="matrix(1,0,0,1,0,0)"><path fill="rgb(0,163,84)" fill-opacity="1" d=" M89.73300170898438,-37.402000427246094 C80.74099731445312,-38.31999969482422 66.5479965209961,-37.09299850463867 52.999000549316406,-32.75 C33.499000549316406,-26.5 51.94499969482422,-13.074000358581543 74.22899627685547,-19.131999969482422 C96.51300048828125,-25.190000534057617 101.58899688720703,-36.19200134277344 89.73300170898438,-37.402000427246094z"/><path stroke-linecap="butt" stroke-linejoin="miter" fill-opacity="0" stroke-miterlimit="4" stroke="rgb(1,73,36)" stroke-opacity="1" stroke-width="37" d=" M89.73300170898438,-37.402000427246094 C80.74099731445312,-38.31999969482422 66.5479965209961,-37.09299850463867 52.999000549316406,-32.75 C33.499000549316406,-26.5 51.94499969482422,-13.074000358581543 74.22899627685547,-19.131999969482422 C96.51300048828125,-25.190000534057617 101.58899688720703,-36.19200134277344 89.73300170898438,-37.402000427246094z"/></g></g><g transform="matrix(0.8289492726325989,-0.2094470113515854,0.2094470113515854,0.8289492726325989,341.67010498046875,196.4655303955078)" opacity="1" style="display: block;"><g opacity="1" transform="matrix(-0.15926091372966766,-0.987236499786377,0.987236499786377,-0.15926091372966766,0,0)"><path fill="rgb(210,250,255)" fill-opacity="1" d=" M-116.197998046875,-359.3380126953125 C-233.75399780273438,-363.1789855957031 -276.7239990234375,-255.88099670410156 -267.8389892578125,-184.08099365234375 C-258.29901123046875,-106.98999786376953 -197.39999389648438,-69.47100067138672 -100.33799743652344,-61.525001525878906 C-36.766998291015625,-56.32099914550781 49.904998779296875,-129.90699768066406 51.95500183105469,-205.4239959716797 C54.005001068115234,-280.9410095214844 17.792999267578125,-354.96099853515625 -116.197998046875,-359.3380126953125z"/><path stroke-linecap="butt" stroke-linejoin="miter" fill-opacity="0" stroke-miterlimit="4" stroke="rgb(64,184,225)" stroke-opacity="1" stroke-width="12" d=" M-116.197998046875,-359.3380126953125 C-233.75399780273438,-363.1789855957031 -276.7239990234375,-255.88099670410156 -267.8389892578125,-184.08099365234375 C-258.29901123046875,-106.98999786376953 -197.39999389648438,-69.47100067138672 -100.33799743652344,-61.525001525878906 C-36.766998291015625,-56.32099914550781 49.904998779296875,-129.90699768066406 51.95500183105469,-205.4239959716797 C54.005001068115234,-280.9410095214844 17.792999267578125,-354.96099853515625 -116.197998046875,-359.3380126953125z"/></g></g><g transform="matrix(0.8289492726325989,-0.2094470113515854,0.2094470113515854,0.8289492726325989,341.67010498046875,196.4655303955078)" opacity="1" style="display: block;"><g opacity="1" transform="matrix(-0.15926091372966766,-0.987236499786377,0.987236499786377,-0.15926091372966766,12.805999755859375,11.579000473022461)"><path stroke-linecap="round" stroke-linejoin="round" fill-opacity="0" stroke="rgb(255,255,255)" stroke-opacity="1" stroke-width="30" d=" M13.76099967956543,-296.0679931640625 C-45.72800064086914,-351.73199462890625 -134.39199829101562,-334.26800537109375 -152.7270050048828,-325.94000244140625"/></g></g><g transform="matrix(0.9233463406562805,-0.08027732372283936,0.08027732372283936,0.9233463406562805,309.4345397949219,200.8629150390625)" opacity="1" style="display: block;"><g opacity="1" transform="matrix(1,0,0,1,0,0)"><path fill="rgb(232,29,29)" fill-opacity="1" d=" M-190.4969940185547,-74.17900085449219 C-202.47000122070312,-65.43599700927734 -195.98599243164062,-28.6200008392334 -203.21600341796875,-1.1950000524520874 C-213.7050018310547,38.5880012512207 -222.0030059814453,78.76200103759766 -180.79200744628906,114.86900329589844 C-156.06300354003906,136.53500366210938 -112.7229995727539,72.49299621582031 -108.75199890136719,20.823999404907227 C-105,-28 -129.73399353027344,-118.55000305175781 -190.4969940185547,-74.17900085449219z"/><path stroke-linecap="butt" stroke-linejoin="miter" fill-opacity="0" stroke-miterlimit="4" stroke="rgb(154,3,3)" stroke-opacity="1" stroke-width="12" d=" M-190.4969940185547,-74.17900085449219 C-202.47000122070312,-65.43599700927734 -195.98599243164062,-28.6200008392334 -203.21600341796875,-1.1950000524520874 C-213.7050018310547,38.5880012512207 -222.0030059814453,78.76200103759766 -180.79200744628906,114.86900329589844 C-156.06300354003906,136.53500366210938 -112.7229995727539,72.49299621582031 -108.75199890136719,20.823999404907227 C-105,-28 -129.73399353027344,-118.55000305175781 -190.4969940185547,-74.17900085449219z"/></g></g><g transform="matrix(0.9996582865715027,-0.026245059445500374,0.026245059445500374,0.9996582865715027,266.0721435546875,244.6443328857422)" opacity="0.33" style="display: block;"><g opacity="1" transform="matrix(1.4820343255996704,-0.37311387062072754,0.296827495098114,1.179019570350647,-77.625,-41.44499969482422)"><path fill="rgb(154,3,3)" fill-opacity="1" d=" M0,-44.554500579833984 C10.141162872314453,-44.554500579833984 18.375,-24.589628219604492 18.375,0 C18.375,24.589628219604492 10.141162872314453,44.554500579833984 0,44.554500579833984 C-10.141162872314453,44.554500579833984 -18.375,24.589628219604492 -18.375,0 C-18.375,-24.589628219604492 -10.141162872314453,-44.554500579833984 0,-44.554500579833984z"/></g></g><g transform="matrix(0.851786732673645,-0.07405581325292587,0.07405581325292587,0.851786732673645,290.4202575683594,232.4774627685547)" opacity="1" style="display: block;"><g opacity="1" transform="matrix(1,0,0,1,0,0)"><path fill="rgb(255,32,32)" fill-opacity="1" d=" M-64,-167 C-55,-203 -26.36400032043457,-238.3090057373047 -13.17199993133545,-243.5970001220703 C0.2029999941587448,-248.95799255371094 21.804000854492188,-249.8459930419922 37.62900161743164,-245.62600708007812 C44.92499923706055,-243.68099975585938 52.702999114990234,-227.8470001220703 56.79600143432617,-212.84800720214844 C56.29600143432617,-200.34800720214844 67,-173.5 70.5,-168.5"/><path stroke-linecap="round" stroke-linejoin="round" fill-opacity="0" stroke="rgb(154,3,3)" stroke-opacity="1" stroke-width="10" d=" M-64,-167 C-55,-203 -26.36400032043457,-238.3090057373047 -13.17199993133545,-243.5970001220703 C0.2029999941587448,-248.95799255371094 21.804000854492188,-249.8459930419922 37.62900161743164,-245.62600708007812 C44.92499923706055,-243.68099975585938 52.702999114990234,-227.8470001220703 56.79600143432617,-212.84800720214844 C56.29600143432617,-200.34800720214844 67,-173.5 70.5,-168.5"/></g></g><g transform="matrix(0.851786732673645,-0.07405581325292587,0.07405581325292587,0.851786732673645,290.4202575683594,232.4774627685547)" opacity="1" style="display: block;"><g opacity="1" transform="matrix(1,0,0,1,0,0)"><path fill="rgb(210,250,255)" fill-opacity="1" d=" M3.6549999713897705,-197.52200317382812 C-60.869998931884766,-197.02200317382812 -87,-184 -87,-148.5 C-87,-112.99600219726562 -33.46799850463867,-124.5 1.4229999780654907,-124.5 C36.31399917602539,-124.5 86.5,-116 86.5,-150.5 C86.5,-185 68.18000030517578,-198.02200317382812 3.6549999713897705,-197.52200317382812z"/><path stroke-linecap="butt" stroke-linejoin="miter" fill-opacity="0" stroke-miterlimit="4" stroke="rgb(64,184,225)" stroke-opacity="1" stroke-width="10" d=" M3.6549999713897705,-197.52200317382812 C-60.869998931884766,-197.02200317382812 -87,-184 -87,-148.5 C-87,-112.99600219726562 -33.46799850463867,-124.5 1.4229999780654907,-124.5 C36.31399917602539,-124.5 86.5,-116 86.5,-150.5 C86.5,-185 68.18000030517578,-198.02200317382812 3.6549999713897705,-197.52200317382812z"/></g></g><g transform="matrix(0.851786732673645,-0.07405581325292587,0.07405581325292587,0.851786732673645,290.4202575683594,232.4774627685547)" opacity="1" style="display: block;"><g opacity="1" transform="matrix(1,0,0,1,0,0)"><path stroke-linecap="round" stroke-linejoin="round" fill-opacity="0" stroke="rgb(255,255,255)" stroke-opacity="1" stroke-width="10" d=" M44.270999908447266,-182.37399291992188 C31.68400001525879,-184.19200134277344 16.058000564575195,-185.01499938964844 -2.069999933242798,-184.875 C-28.608999252319336,-184.66900634765625 -56.26300048828125,-180.22900390625 -69.58599853515625,-170.093994140625"/></g></g><g transform="matrix(0.9369140267372131,-0.1571369767189026,0.1571369767189026,0.9369140267372131,105.19966125488281,90.1747055053711)" opacity="1" style="display: block;"><g opacity="1" transform="matrix(1,0,0,1,167.13900756835938,160.63900756835938)"><path fill="rgb(0,163,84)" fill-opacity="1" d=" M12.756999969482422,-135.97799682617188 C-51.75400161743164,-140.70599365234375 -84.01899719238281,-105.4000015258789 -106.25399780273438,-47.382999420166016 C-118.99199676513672,-14.147000312805176 -132.4029998779297,10.883999824523926 -116.41200256347656,72.21600341796875 C-103.8270034790039,120.48600006103516 -69.28399658203125,129.06100463867188 -9.288000106811523,135.25900268554688 C48.73099899291992,141.2530059814453 99.71099853515625,124.06800079345703 120.53800201416016,85.00700378417969 C124.15799713134766,78.21700286865234 139.62399291992188,29.2810001373291 118.37000274658203,-42.244998931884766 C102.61000061035156,-95.28399658203125 75.98899841308594,-131.343994140625 12.756999969482422,-135.97799682617188z"/><path stroke-linecap="round" stroke-linejoin="round" fill-opacity="0" stroke="rgb(1,73,36)" stroke-opacity="1" stroke-width="10" d=" M12.756999969482422,-135.97799682617188 C-51.75400161743164,-140.70599365234375 -84.01899719238281,-105.4000015258789 -106.25399780273438,-47.382999420166016 C-118.99199676513672,-14.147000312805176 -132.4029998779297,10.883999824523926 -116.41200256347656,72.21600341796875 C-103.8270034790039,120.48600006103516 -69.28399658203125,129.06100463867188 -9.288000106811523,135.25900268554688 C48.73099899291992,141.2530059814453 99.71099853515625,124.06800079345703 120.53800201416016,85.00700378417969 C124.15799713134766,78.21700286865234 139.62399291992188,29.2810001373291 118.37000274658203,-42.244998931884766 C102.61000061035156,-95.28399658203125 75.98899841308594,-131.343994140625 12.756999969482422,-135.97799682617188z"/></g></g><g transform="matrix(0.9449523687362671,-0.4928736090660095,0.598160445690155,1.146811604499817,187.55128479003906,129.93246459960938)" opacity="0.98" style="display: block;"><g opacity="1" transform="matrix(1,0,0,1,56.3489990234375,26.31100082397461)"><path fill="rgb(7,188,99)" fill-opacity="1" d=" M56.099998474121094,0 C56.099998474121094,14.392999649047852 30.98200035095215,26.06100082397461 -0.0010000000474974513,26.06100082397461 C-30.983999252319336,26.06100082397461 -56.099998474121094,14.392999649047852 -56.099998474121094,0 C-56.099998474121094,-14.392999649047852 -30.983999252319336,-26.06100082397461 -0.0010000000474974513,-26.06100082397461 C30.98200035095215,-26.06100082397461 56.099998474121094,-14.392999649047852 56.099998474121094,0z"/></g></g><g transform="matrix(0.9369140267372131,-0.1571369767189026,0.1571369767189026,0.9369140267372131,105.19966125488281,90.1747055053711)" opacity="1" style="display: block;"><g opacity="1" transform="matrix(1,0,0,1,167.13900756835938,160.63900756835938)"><path stroke-linecap="round" stroke-linejoin="round" fill-opacity="0" stroke="rgb(26,237,134)" stroke-opacity="1" stroke-width="10" d=" M16.08099937438965,-119.4749984741211 C-4.9120001792907715,-123.72000122070312 -52.6150016784668,-123.05999755859375 -83.19000244140625,-60.15800094604492"/></g></g><g transform="matrix(0.9369140267372131,-0.1571369767189026,0.1571369767189026,0.9369140267372131,105.19966125488281,90.1747055053711)" opacity="1" style="display: block;"><g opacity="1" transform="matrix(1,0,0,1,167.13900756835938,160.63900756835938)"><path stroke-linecap="round" stroke-linejoin="round" fill-opacity="0" stroke="rgb(7,188,101)" stroke-opacity="1" stroke-width="7" d=" M107.14600372314453,-39.104000091552734 C100.64299774169922,-63.07699966430664 91.22699737548828,-83.14399719238281 76.53199768066406,-97.85600280761719"/></g></g><g transform="matrix(1.2850128412246704,-0.0722547098994255,0.08096494525671005,1.2331857681274414,182.5485076904297,167.3435516357422)" opacity="1" style="display: block;"><path stroke-linecap="butt" stroke-linejoin="miter" fill-opacity="0" stroke-miterlimit="4" stroke="rgb(0,0,0)" stroke-opacity="1" stroke-width="0" d=" M34.2,26.91 C31.27,38.18 21.95,45.51 13.38,43.28 C4.82,41.06 0.25,30.12 3.18,18.85 C6.11,7.58 15.43,0.25 23.99,2.48 C32.56,4.71 37.13,15.64 34.2,26.91z"/><g opacity="1" transform="matrix(1,0,0,1,18.687999725341797,22.8799991607666)"><path fill="rgb(0,0,0)" fill-opacity="1" d=" M15.509041786193848,4.032370567321777 C12.57919979095459,15.299863815307617 3.2604150772094727,22.629344940185547 -5.304934978485107,20.402368545532227 C-13.871094703674316,18.175416946411133 -18.439109802246094,7.235896587371826 -15.509249687194824,-4.031539440155029 C-12.580371856689453,-15.299030303955078 -3.261762857437134,-22.628677368164062 5.303573131561279,-20.40169906616211 C13.868982315063477,-18.174711227416992 18.43889045715332,-7.235170841217041 15.509041786193848,4.032370567321777z"/></g></g><g transform="matrix(1.241374135017395,0.025647664442658424,-0.021434340626001358,1.1999646425247192,277.81768798828125,203.3629608154297)" opacity="1" style="display: block;"><g opacity="1" transform="matrix(1,0,0,1,0,0)"><path stroke-linecap="butt" stroke-linejoin="miter" fill-opacity="0" stroke-miterlimit="4" stroke="rgb(0,0,0)" stroke-opacity="1" stroke-width="8" d=" M-67.2760009765625,-38.20500183105469 C-67.2760009765625,-38.20500183105469 -54.65299987792969,-54.44599914550781 -37.83300018310547,-48.95100021362305"/></g></g><g transform="matrix(0.8481085300445557,-0.047688111662864685,0.05343686044216156,0.8139026761054993,196.29600524902344,188.20106506347656)" opacity="1" style="display: block;"><g opacity="1" transform="matrix(1,0,0,1,6.136000156402588,6.625999927520752)"><path fill="rgb(255,255,255)" fill-opacity="1" d=" M5.886000156402588,0 C5.886000156402588,3.5220000743865967 3.250999927520752,6.375999927520752 0,6.375999927520752 C-3.250999927520752,6.375999927520752 -5.886000156402588,3.5220000743865967 -5.886000156402588,0 C-5.886000156402588,-3.5220000743865967 -3.250999927520752,-6.375999927520752 0,-6.375999927520752 C3.250999927520752,-6.375999927520752 5.886000156402588,-3.5220000743865967 5.886000156402588,0z"/></g></g><g transform="matrix(-1.2757301330566406,0.07173275947570801,0.08096494525671005,1.2331857681274414,369.0716552734375,168.4011993408203)" opacity="1" style="display: block;"><path stroke-linecap="butt" stroke-linejoin="miter" fill-opacity="0" stroke-miterlimit="4" stroke="rgb(0,0,0)" stroke-opacity="1" stroke-width="0" d=" M34.2,26.91 C31.27,38.18 21.95,45.51 13.38,43.28 C4.82,41.06 0.25,30.12 3.18,18.85 C6.11,7.58 15.43,0.25 23.99,2.48 C32.56,4.7 37.13,15.64 34.2,26.91z"/><g opacity="1" transform="matrix(1,0,0,1,18.687999725341797,22.8799991607666)"><path fill="rgb(0,0,0)" fill-opacity="1" d=" M15.509049415588379,4.03200101852417 C12.57923698425293,15.299495697021484 3.260446548461914,22.6290340423584 -5.304910182952881,20.40219497680664 C-13.871075630187988,18.175352096557617 -18.439117431640625,7.2358808517456055 -15.509278297424316,-4.031559944152832 C-12.580430030822754,-15.299057960510254 -3.2618393898010254,-22.62873077392578 5.303504467010498,-20.40188980102539 C13.868921279907227,-18.175048828125 18.438859939575195,-7.235541820526123 15.509049415588379,4.03200101852417z"/></g></g><g transform="matrix(-0.842269778251648,0.04275459051132202,0.048657722771167755,0.8136261701583862,347.86602783203125,192.0084991455078)" opacity="1" style="display: block;"><g opacity="1" transform="matrix(1,0,0,1,6.136000156402588,6.625999927520752)"><path fill="rgb(255,255,255)" fill-opacity="1" d=" M5.886000156402588,0 C5.886000156402588,3.5220000743865967 3.250999927520752,6.375999927520752 0,6.375999927520752 C-3.250999927520752,6.375999927520752 -5.886000156402588,3.5220000743865967 -5.886000156402588,0 C-5.886000156402588,-3.5220000743865967 -3.250999927520752,-6.375999927520752 0,-6.375999927520752 C3.250999927520752,-6.375999927520752 5.886000156402588,-3.5220000743865967 5.886000156402588,0z"/></g></g><g transform="matrix(0.8285823464393616,0.009986449964344501,-0.008510373532772064,1.0001318454742432,290.4477233886719,249.66688537597656)" opacity="1" style="display: block;"><g opacity="1" transform="matrix(1,0,0,1,0,0)"><path fill="rgb(0,163,84)" fill-opacity="1" d=" M89.73298645019531,-37.401885986328125 C80.7409896850586,-38.31988525390625 66.54798889160156,-37.0928840637207 52.99898910522461,-32.74988555908203 C33.49898910522461,-26.49988555908203 51.94499969482422,-13.074000358581543 74.22899627685547,-19.131999969482422 C96.51300048828125,-25.190000534057617 101.5889892578125,-36.1918830871582 89.73298645019531,-37.401885986328125z"/><path stroke-linecap="butt" stroke-linejoin="miter" fill-opacity="0" stroke-miterlimit="4" stroke="rgb(0,163,84)" stroke-opacity="1" stroke-width="17" d=" M89.73298645019531,-37.401885986328125 C80.7409896850586,-38.31988525390625 66.54798889160156,-37.0928840637207 52.99898910522461,-32.74988555908203 C33.49898910522461,-26.49988555908203 51.94499969482422,-13.074000358581543 74.22899627685547,-19.131999969482422 C96.51300048828125,-25.190000534057617 101.5889892578125,-36.1918830871582 89.73298645019531,-37.401885986328125z"/></g></g><g transform="matrix(-1.2429962158203125,-0.026373066008090973,-0.020741159096360207,1.2015544176101685,274.64996337890625,203.6314239501953)" opacity="1" style="display: block;"><g opacity="1" transform="matrix(1,0,0,1,0,0)"><path stroke-linecap="butt" stroke-linejoin="miter" fill-opacity="0" stroke-miterlimit="4" stroke="rgb(0,0,0)" stroke-opacity="1" stroke-width="8" d=" M-71.25399780273438,-25.28700065612793 C-64.66899871826172,-34.597999572753906 -54.79499816894531,-36.5369987487793 -42.8650016784668,-31.75200080871582"/></g></g><g transform="matrix(1,0,0,1,256,256)" opacity="1" style="display: block;"/><g transform="matrix(0.7495312094688416,-0.12570957839488983,0.12570957839488983,0.7495312094688416,153.34329223632812,164.6542205810547)" opacity="1" style="display: block;"><g opacity="1" transform="matrix(1,0,0,1,165.3509979248047,151.63800048828125)"><path fill="rgb(255,77,68)" fill-opacity="1" d=" M12.588000297546387,-39.516998291015625 C-65.70500183105469,-45.16299819946289 -142.0659942626953,-32.09400177001953 -140.8090057373047,10.317000389099121 C-138.5449981689453,86.7229995727539 -73.0780029296875,112.6500015258789 -7.77400016784668,116.25700378417969 C72.1969985961914,120.67500305175781 136.33700561523438,77.76200103759766 141.9510040283203,27.34600067138672 C149.35699462890625,-24.56800079345703 57.902000427246094,-36.249000549316406 12.588000297546387,-39.516998291015625z"/><path stroke-linecap="round" stroke-linejoin="round" fill-opacity="0" stroke="rgb(185,37,27)" stroke-opacity="1" stroke-width="10" d=" M12.588000297546387,-39.516998291015625 C-65.70500183105469,-45.16299819946289 -142.0659942626953,-32.09400177001953 -140.8090057373047,10.317000389099121 C-138.5449981689453,86.7229995727539 -73.0780029296875,112.6500015258789 -7.77400016784668,116.25700378417969 C72.1969985961914,120.67500305175781 136.33700561523438,77.76200103759766 141.9510040283203,27.34600067138672 C149.35699462890625,-24.56800079345703 57.902000427246094,-36.249000549316406 12.588000297546387,-39.516998291015625z"/></g></g><g transform="matrix(0.8808016777038574,0.068997323513031,-0.06667590141296387,0.8511669039726257,239.59072875976562,203.2645721435547)" opacity="1" style="display: block;"><g opacity="1" transform="matrix(1,0,0,1,46.430999755859375,41.23099899291992)"><path fill="rgb(93,100,119)" fill-opacity="1" d=" M39.016998291015625,-42.4109992980957 C26.308000564575195,-61.26499938964844 10.20199966430664,-70.40299987792969 -6.123000144958496,-69.14199829101562 C-23.549999237060547,-67.60700225830078 -35.24100112915039,-55.29899978637695 -45.72200012207031,-39.91999816894531 C-35.80400085449219,-25.052000045776367 -16.812000274658203,-17.527000427246094 -0.21199999749660492,-18.829999923706055 C16.38800048828125,-20.073999404907227 33.106998443603516,-26.584999084472656 39.016998291015625,-42.4109992980957z"/><path stroke-linecap="round" stroke-linejoin="round" fill-opacity="0" stroke="rgb(0,0,0)" stroke-opacity="1" stroke-width="10" d=" M39.016998291015625,-42.4109992980957 C26.308000564575195,-61.26499938964844 10.20199966430664,-70.40299987792969 -6.123000144958496,-69.14199829101562 C-23.549999237060547,-67.60700225830078 -35.24100112915039,-55.29899978637695 -45.72200012207031,-39.91999816894531 C-35.80400085449219,-25.052000045776367 -16.812000274658203,-17.527000427246094 -0.21199999749660492,-18.829999923706055 C16.38800048828125,-20.073999404907227 33.106998443603516,-26.584999084472656 39.016998291015625,-42.4109992980957z"/></g></g><g transform="matrix(0.8808016777038574,0.068997323513031,-0.06667590141296387,0.8511669039726257,239.59072875976562,203.2645721435547)" opacity="1" style="display: block;"><g opacity="1" transform="matrix(1,0,0,1,46.430999755859375,41.23099899291992)"><path stroke-linecap="round" stroke-linejoin="round" fill-opacity="0" stroke="rgb(184,184,184)" stroke-opacity="1" stroke-width="10" d=" M-7.577000141143799,-58.823001861572266 C-11.79699993133545,-55.83100128173828 -18.007999420166016,-50.000999450683594 -19.360000610351562,-46.742000579833984"/></g></g><g transform="matrix(0.8808016777038574,0.068997323513031,-0.06667590141296387,0.8511669039726257,239.5572509765625,203.26194763183594)" opacity="1" style="display: block;"><g opacity="1" transform="matrix(1,0,0,1,46.430999755859375,41.23099899291992)"><path fill="rgb(154,3,3)" fill-opacity="1" d=" M34.17499923706055,-42.0620002746582 C15.904000282287598,-50.70899963378906 -16.858999252319336,-50.12699890136719 -40.27199935913086,-39.34700012207031 C-17.141000747680664,-49.79600143432617 16.67099952697754,-50.595001220703125 34.17499923706055,-42.0620002746582z"/><path stroke-linecap="round" stroke-linejoin="round" fill-opacity="0" stroke="rgb(0,0,0)" stroke-opacity="1" stroke-width="8" d=" M34.17499923706055,-42.0620002746582 C15.904000282287598,-50.70899963378906 -16.858999252319336,-50.12699890136719 -40.27199935913086,-39.34700012207031 C-17.141000747680664,-49.79600143432617 16.67099952697754,-50.595001220703125 34.17499923706055,-42.0620002746582z"/></g></g><g transform="matrix(0.9233463406562805,-0.08027732372283936,0.08027731627225876,0.9233462810516357,292.0628662109375,215.0643310546875)" opacity="1" style="display: block;"><g opacity="1" transform="matrix(1,0,0,1,0,0)"><path fill="rgb(232,29,29)" fill-opacity="1" d=" M-183.6719970703125,-8.970000267028809 C-222.6179962158203,106.43299865722656 -175.97999572753906,214.97999572753906 -119.90799713134766,248.76300048828125 C-83,271 -28.924999237060547,266.9599914550781 11,256 C62,242 94.61699676513672,226.25599670410156 108.1050033569336,189.39500427246094 C119.91200256347656,157.13099670410156 135.25599670410156,132.5709991455078 112.20999908447266,101.40399932861328 C132.32400512695312,87.62200164794922 155.0679931640625,67.48899841308594 166.8090057373047,56.20500183105469 C193.4550018310547,30.597000122070312 178.83399963378906,-29.163000106811523 129.56100463867188,-10.664999961853027 C109.50399780273438,-3.134999990463257 74.13999938964844,13.930000305175781 35.310001373291016,29.868000030517578 C-33.63800048828125,58.167999267578125 -130.09800720214844,71.63800048828125 -137.89500427246094,-19.604999542236328"/><path stroke-linecap="round" stroke-linejoin="round" fill-opacity="0" stroke="rgb(154,3,3)" stroke-opacity="1" stroke-width="12" d=" M-183.6719970703125,-8.970000267028809 C-222.6179962158203,106.43299865722656 -175.97999572753906,214.97999572753906 -119.90799713134766,248.76300048828125 C-83,271 -28.924999237060547,266.9599914550781 11,256 C62,242 94.61699676513672,226.25599670410156 108.1050033569336,189.39500427246094 C119.91200256347656,157.13099670410156 135.25599670410156,132.5709991455078 112.20999908447266,101.40399932861328 C132.32400512695312,87.62200164794922 155.0679931640625,67.48899841308594 166.8090057373047,56.20500183105469 C193.4550018310547,30.597000122070312 178.83399963378906,-29.163000106811523 129.56100463867188,-10.664999961853027 C109.50399780273438,-3.134999990463257 74.13999938964844,13.930000305175781 35.310001373291016,29.868000030517578 C-33.63800048828125,58.167999267578125 -130.09800720214844,71.63800048828125 -137.89500427246094,-19.604999542236328"/></g></g><g transform="matrix(0.9233463406562805,-0.08027732372283936,0.08027731627225876,0.9233462810516357,292.0628662109375,215.0643310546875)" opacity="1" style="display: block;"><g opacity="1" transform="matrix(1,0,0,1,0,0)"><path fill="rgb(255,32,32)" fill-opacity="1" d=" M-151.9810028076172,-9.029000282287598 C-162.73899841308594,-13.640000343322754 -164.98199462890625,11.470000267028809 -166.61599731445312,32.02799987792969 C-175.31100463867188,141.3820037841797 -144.0030059814453,191.53900146484375 -99.98400115966797,218.05999755859375 C-71.00900268554688,235.51699829101562 -22.55900001525879,227.8459930419922 8.784000396728516,219.24200439453125 C48.82099914550781,208.25100708007812 63.805999755859375,202.44700622558594 75.552001953125,176.45599365234375 C84.2750015258789,157.1540069580078 108.51799774169922,120.97100067138672 75.23799896240234,109.87799835205078 C91.02799987792969,99.05899810791016 113.38300323486328,79.75299835205078 122.5999984741211,70.8949966430664 C143.51800537109375,50.79100036621094 120.04000091552734,2.877000093460083 81.35900115966797,17.39900016784668 C65.61399841308594,23.309999465942383 58.35100173950195,29.207000732421875 27.868000030517578,41.71900177001953 C-26.259000778198242,63.93600082397461 -113.48100280761719,75.47100067138672 -135.9810028076172,31.364999771118164 C-140.03199768066406,23.423999786376953 -137.9810028076172,-3.0290000438690186 -151.9810028076172,-9.029000282287598z"/></g></g><g transform="matrix(1.0000026226043701,0.000019210912796552293,-0.00001922777300933376,1.0000025033950806,259.9856872558594,253.9805450439453)" opacity="1" style="display: block;"><g opacity="1" transform="matrix(1,0,0,1,0,0)"><path stroke-linecap="round" stroke-linejoin="round" fill-opacity="0" stroke="rgb(255,32,32)" stroke-opacity="1" stroke-width="8" d=" M131.7969970703125,55.47600173950195 C137.69700622558594,60.67900085449219 144.7969970703125,69.60800170898438 142.33599853515625,88.19599914550781 C139.40899658203125,110.302001953125 131.8780059814453,141.40199279785156 113.44200134277344,153.38299560546875"/></g></g><g transform="matrix(0.8883544206619263,-0.26427119970321655,0.26427122950553894,0.8883543610572815,151.43328857421875,270.57366943359375)" opacity="1" style="display: block;"><g opacity="1" transform="matrix(1,0,0,1,106.37000274658203,119.81800079345703)"><path stroke-linecap="round" stroke-linejoin="round" fill-opacity="0" stroke="rgb(255,255,255)" stroke-opacity="1" stroke-width="10" d=" M-2.947999954223633,-64.51499938964844 C-18.672000885009766,-8.932000160217285 -18.672000885009766,49.03099822998047 -2.947999954223633,104.61399841308594"/></g><g opacity="1" transform="matrix(1,0,0,1,105.26799774169922,127.74099731445312)"><path stroke-linecap="round" stroke-linejoin="round" fill-opacity="0" stroke="rgb(255,255,255)" stroke-opacity="1" stroke-width="10" d=" M59.49599838256836,-23.312999725341797 C9.427000045776367,-4.49399995803833 -38.67100143432617,24.041000366210938 -80.87699890136719,61.698001861572266"/></g><g opacity="1" transform="matrix(1,0,0,1,105.26799774169922,111.89600372314453)"><path stroke-linecap="round" stroke-linejoin="round" fill-opacity="0" stroke="rgb(255,255,255)" stroke-opacity="1" stroke-width="10" d=" M59.49599838256836,63.4119987487793 C9.427000045776367,44.59299850463867 -38.67100143432617,16.058000564575195 -80.87699890136719,-21.599000930786133"/></g><g opacity="1" transform="matrix(1,0,0,1,101.96299743652344,119.81900024414062)"><path stroke-linecap="round" stroke-linejoin="round" fill-opacity="0" stroke="rgb(255,255,255)" stroke-opacity="1" stroke-width="10" d=" M-9.116000175476074,-7.290999889373779 C0.19300000369548798,-13.390999794006348 9.682999610900879,-19.069000244140625 19.312999725341797,-24.320999145507812 C16.527000427246094,-13.97599983215332 14.305999755859375,-3.490000009536743 12.661999702453613,7.103000164031982 C22.374000549316406,11.734999656677246 32.19499969482422,16.052000045776367 42.10599899291992,20.048999786376953 C32.19499969482422,24.047000885009766 22.374000549316406,28.36400032043457 12.661999702453613,32.99599838256836 C14.305999755859375,43.59000015258789 16.527000427246094,54.07500076293945 19.312999725341797,64.41899871826172 C9.682999610900879,59.167999267578125 0.19300000369548798,53.48899841308594 -9.116000175476074,47.38999938964844 C-17.236000061035156,54.612998962402344 -25.10300064086914,62.237998962402344 -32.67599868774414,70.25199890136719 C-33.35300064086914,58.27000045776367 -33.362998962402344,46.32500076293945 -32.720001220703125,34.45800018310547 C-42.83700180053711,29.97599983215332 -52.86199951171875,25.172000885009766 -62.77299880981445,20.048999786376953 C-52.86199951171875,14.927000045776367 -42.83700180053711,10.123000144958496 -32.720001220703125,5.640999794006348 C-33.362998962402344,-6.2270002365112305 -33.35300064086914,-18.17099952697754 -32.67599868774414,-30.152999877929688 C-25.10300064086914,-22.138999938964844 -17.236000061035156,-14.515000343322754 -9.116000175476074,-7.290999889373779z"/></g><g opacity="1" transform="matrix(1,0,0,1,111.15299987792969,47.37300109863281)"><path stroke-linecap="round" stroke-linejoin="round" fill-opacity="0" stroke="rgb(255,255,255)" stroke-opacity="1" stroke-width="10" d=" M-31.45199966430664,18.43199920654297 C-26.007999420166016,24.965999603271484 -20.367000579833984,31.270000457763672 -14.54699993133545,37.33599853515625 C-6.8470001220703125,33.04399871826172 0.9419999718666077,29.016000747680664 8.79800033569336,25.250999450683594"/></g><g opacity="1" transform="matrix(1,0,0,1,39.16699981689453,75.0989990234375)"><path stroke-linecap="round" stroke-linejoin="round" fill-opacity="0" stroke="rgb(255,255,255)" stroke-opacity="1" stroke-width="10" d=" M-16.17799949645996,45.06100082397461 C-8.201000213623047,41.2239990234375 -0.16099999845027924,37.584999084472656 7.927999973297119,34.14400100708008 C7.890999794006348,24.36199951171875 8.276000022888184,14.543999671936035 9.092000007629395,4.710000038146973"/></g><g opacity="1" transform="matrix(1,0,0,1,39.16699981689453,164.53799438476562)"><path stroke-linecap="round" stroke-linejoin="round" fill-opacity="0" stroke="rgb(255,255,255)" stroke-opacity="1" stroke-width="10" d=" M9.092000007629395,35.388999938964844 C8.274999618530273,25.55500030517578 7.889999866485596,15.737000465393066 7.927000045776367,5.954999923706055 C-0.16200000047683716,2.5139999389648438 -8.201000213623047,-1.125 -16.17799949645996,-4.961999893188477"/></g><g opacity="1" transform="matrix(1,0,0,1,111.15299987792969,192.26300048828125)"><path stroke-linecap="round" stroke-linejoin="round" fill-opacity="0" stroke="rgb(255,255,255)" stroke-opacity="1" stroke-width="10" d=" M8.79800033569336,14.847999572753906 C0.9419999718666077,11.083000183105469 -6.8470001220703125,7.056000232696533 -14.54699993133545,2.7639999389648438 C-20.367000579833984,8.829999923706055 -26.007999420166016,15.133000373840332 -31.45199966430664,21.66699981689453"/></g><g opacity="1" transform="matrix(1,0,0,1,167.33099365234375,154.52999877929688)"><path stroke-linecap="round" stroke-linejoin="round" fill-opacity="0" stroke="rgb(255,255,255)" stroke-opacity="1" stroke-width="10" d=" M-6.126999855041504,-0.4699999988079071 C-13.711000442504883,2.825000047683716 -21.229999542236328,6.311999797821045 -28.677000045776367,9.993000030517578 C-27.058000564575195,17.760000228881836 -25.10700035095215,25.454999923706055 -22.832000732421875,33.06100082397461"/></g><g opacity="1" transform="matrix(1,0,0,1,167.3300018310547,85.10800170898438)"><path stroke-linecap="round" stroke-linejoin="round" fill-opacity="0" stroke="rgb(255,255,255)" stroke-opacity="1" stroke-width="10" d=" M-22.832000732421875,7.0370001792907715 C-25.10700035095215,14.642999649047852 -27.05699920654297,22.336999893188477 -28.677000045776367,30.104000091552734 C-21.229000091552734,33.78499984741211 -13.710000038146973,37.27399826049805 -6.126999855041504,40.569000244140625"/></g></g><g transform="matrix(0.851786732673645,-0.07405581325292587,0.07405581325292587,0.851786732673645,290.4202575683594,232.4774627685547)" opacity="1" style="display: block;"><g opacity="1" transform="matrix(1,0,0,1,0,0)"><path fill="rgb(255,32,32)" fill-opacity="1" d=" M-18.5,-240.2220001220703 C-2.296999931335449,-256.6830139160156 37.891998291015625,-255.4600067138672 51.02299880981445,-252.72799682617188 C81.63300323486328,-246.36000061035156 80.3759994506836,-213.3520050048828 89.38099670410156,-178.7550048828125 C85.8290023803711,-178.13299560546875 82.58699798583984,-177.78399658203125 78.3219985961914,-178.0229949951172 C68.09500122070312,-194.0540008544922 44.7859992980957,-218.08200073242188 35.13399887084961,-234.7220001220703"/><path stroke-linecap="round" stroke-linejoin="round" fill-opacity="0" stroke="rgb(154,3,3)" stroke-opacity="1" stroke-width="10" d=" M-18.5,-240.2220001220703 C-2.296999931335449,-256.6830139160156 37.891998291015625,-255.4600067138672 51.02299880981445,-252.72799682617188 C81.63300323486328,-246.36000061035156 80.3759994506836,-213.3520050048828 89.38099670410156,-178.7550048828125 C85.8290023803711,-178.13299560546875 82.58699798583984,-177.78399658203125 78.3219985961914,-178.0229949951172 C68.09500122070312,-194.0540008544922 44.7859992980957,-218.08200073242188 35.13399887084961,-234.7220001220703"/></g></g><g transform="matrix(0.851786732673645,-0.07405581325292587,0.07405581325292587,0.851786732673645,277.80279541015625,208.5812225341797)" opacity="1" style="display: block;"><g opacity="1" transform="matrix(1,0,0,1,97.29900360107422,-144.4770050048828)"><path fill="rgb(210,250,255)" fill-opacity="1" d=" M0,-19.40250015258789 C10.708239555358887,-19.40250015258789 19.40250015258789,-10.708239555358887 19.40250015258789,0 C19.40250015258789,10.708239555358887 10.708239555358887,19.40250015258789 0,19.40250015258789 C-10.708239555358887,19.40250015258789 -19.40250015258789,10.708239555358887 -19.40250015258789,0 C-19.40250015258789,-10.708239555358887 -10.708239555358887,-19.40250015258789 0,-19.40250015258789z"/><path stroke-linecap="butt" stroke-linejoin="miter" fill-opacity="0" stroke-miterlimit="4" stroke="rgb(64,184,225)" stroke-opacity="1" stroke-width="10" d=" M0,-19.40250015258789 C10.708239555358887,-19.40250015258789 19.40250015258789,-10.708239555358887 19.40250015258789,0 C19.40250015258789,10.708239555358887 10.708239555358887,19.40250015258789 0,19.40250015258789 C-10.708239555358887,19.40250015258789 -19.40250015258789,10.708239555358887 -19.40250015258789,0 C-19.40250015258789,-10.708239555358887 -10.708239555358887,-19.40250015258789 0,-19.40250015258789z"/></g></g><g transform="matrix(0.4419921338558197,-0.03842756152153015,0.03842756152153015,0.4419921338558197,312.5279541015625,145.90872192382812)" opacity="1" style="display: block;"><g opacity="1" transform="matrix(1,0,0,1,91.2770004272461,-153.50999450683594)"><path fill="rgb(255,255,255)" fill-opacity="1" d=" M0,-19.40250015258789 C10.708239555358887,-19.40250015258789 19.40250015258789,-10.708239555358887 19.40250015258789,0 C19.40250015258789,10.708239555358887 10.708239555358887,19.40250015258789 0,19.40250015258789 C-10.708239555358887,19.40250015258789 -19.40250015258789,10.708239555358887 -19.40250015258789,0 C-19.40250015258789,-10.708239555358887 -10.708239555358887,-19.40250015258789 0,-19.40250015258789z"/></g></g><g transform="matrix(0.11298411339521408,0,0,0.11298411339521408,81.08223724365234,101.81268310546875)" opacity="1" style="display: block;"><g opacity="1" transform="matrix(1,0,0,1,0,0)"><path stroke-linecap="round" stroke-linejoin="round" fill-opacity="0" stroke="rgb(64,184,225)" stroke-opacity="1" stroke-width="17" d=" M-225,-212 C-206,-245 -152,-227 -175,-202 C-198,-177 -209,-165 -202,-147"/></g><g opacity="1" transform="matrix(1,0,0,1,0,0)"><path stroke-linecap="butt" stroke-linejoin="miter" fill-opacity="0" stroke-miterlimit="4" stroke="rgb(64,184,225)" stroke-opacity="1" stroke-width="17" d=" M-193.0679931640625,-122.25 C-193.63600158691406,-128.5 -202.7270050048828,-126.7959976196289 -199.88600158691406,-121.68199920654297 C-197.0449981689453,-116.56800079345703 -192.5,-116 -193.0679931640625,-122.25z"/></g></g><g transform="matrix(0.00024099841539282352,0,0,0.00024099841539282352,433.8495178222656,102.21488952636719)" opacity="1" style="display: none;"><g opacity="1" transform="matrix(1,0,0,1,0,0)"><path stroke-linecap="round" stroke-linejoin="round" fill-opacity="0" stroke="rgb(64,184,225)" stroke-opacity="1" stroke-width="17" d=" M-229,-223.5 C-194.5,-268.5 -146.5,-212 -179,-189 C-210.04200744628906,-167.031005859375 -201.5,-159.5 -198.5,-144"/></g><g opacity="1" transform="matrix(1,0,0,1,0,-5)"><path stroke-linecap="butt" stroke-linejoin="miter" fill-opacity="0" stroke-miterlimit="4" stroke="rgb(64,184,225)" stroke-opacity="1" stroke-width="17" d=" M-194.5679931640625,-113.25 C-194.77200317382812,-115.48899841308594 -194.56900024414062,-115.70800018310547 -196.02000427246094,-116.11399841308594 C-196.0229949951172,-116.11499786376953 -196.0279998779297,-116.11499786376953 -196.031005859375,-116.11599731445312 C-196.20399475097656,-116.16400146484375 -196.37899780273438,-116.20099639892578 -196.5540008544922,-116.22599792480469 C-196.59100341796875,-116.23100280761719 -196.6280059814453,-116.23600006103516 -196.6649932861328,-116.23999786376953 C-197.0399932861328,-116.28399658203125 -197.4149932861328,-116.2770004272461 -197.7760009765625,-116.2239990234375 C-197.98800659179688,-116.19300079345703 -198.1959991455078,-116.1449966430664 -198.39500427246094,-116.08200073242188 C-200.05299377441406,-115.55699920654297 -201.14999389648438,-113.95700073242188 -199.88600158691406,-111.68199920654297 C-197.0449981689453,-106.56800079345703 -194,-107 -194.5679931640625,-113.25z"/></g></g><g transform="matrix(0.660000205039978,0,0,0.660000205039978,563.9527587890625,256.89886474609375)" opacity="1" style="display: block;"><g opacity="1" transform="matrix(1.000730037689209,0,0,1.000730037689209,0,0)"><path stroke-linecap="round" stroke-linejoin="round" fill-opacity="0" stroke="rgb(64,184,225)" stroke-opacity="1" stroke-width="17" d=" M-225.43099975585938,-216.29299926757812 C-187.67100524902344,-244.36599731445312 -154.36099243164062,-196.2949981689453 -181.43299865722656,-174.6320037841797 C-191.79299926757812,-166.34100341796875 -201.72500610351562,-159.85400390625 -199.2209930419922,-146.91900634765625"/></g><g opacity="1" transform="matrix(1,0,0,1,0,-5)"><path stroke-linecap="butt" stroke-linejoin="miter" fill-opacity="0" stroke-miterlimit="4" stroke="rgb(64,184,225)" stroke-opacity="1" stroke-width="17" d=" M-196.81100463867188,-113.15899658203125 C-196.88099670410156,-113.9260025024414 -196.81199645996094,-114.00199890136719 -197.3090057373047,-114.14099884033203 C-197.30999755859375,-114.14099884033203 -197.31100463867188,-114.14199829101562 -197.31199645996094,-114.14199829101562 C-197.33900451660156,-114.14900207519531 -197.36500549316406,-114.15499877929688 -197.39199829101562,-114.16100311279297 C-197.4250030517578,-114.16799926757812 -197.45799255371094,-114.17400360107422 -197.49099731445312,-114.17900085449219 C-197.50399780273438,-114.18099975585938 -197.51699829101562,-114.18299865722656 -197.52999877929688,-114.18399810791016 C-197.5469970703125,-114.18599700927734 -197.56500244140625,-114.18800354003906 -197.58200073242188,-114.18900299072266 C-197.6929931640625,-114.197998046875 -197.8040008544922,-114.19499969482422 -197.91099548339844,-114.17900085449219 C-197.9739990234375,-114.16999816894531 -198.03599548339844,-114.15599822998047 -198.0959930419922,-114.13800048828125 C-198.0959930419922,-114.13800048828125 -198.0970001220703,-114.13800048828125 -198.0970001220703,-114.13800048828125 C-198.1060028076172,-114.13500213623047 -198.11399841308594,-114.13300323486328 -198.1219940185547,-114.12999725341797 C-198.69000244140625,-113.94999694824219 -199.06700134277344,-113.4020004272461 -198.63400268554688,-112.62200164794922 C-197.66000366210938,-110.86900329589844 -196.61599731445312,-111.01699829101562 -196.81100463867188,-113.15899658203125z"/></g></g><g transform="matrix(1.0000026226043701,0.00001921796501846984,-0.00001921796501846984,1.0000026226043701,255.9966583251953,256.0050048828125)" opacity="1" style="display: block;"><g opacity="1" transform="matrix(1,0,0,1,0,0)"><path stroke-linecap="round" stroke-linejoin="round" fill-opacity="0" stroke="rgb(255,79,79)" stroke-opacity="1" stroke-width="10" d=" M-113.47799682617188,-105.94599914550781 C-118.61000061035156,-103.6240005493164 -125,-100.5 -123.5,-92 C-122,-83.5 -124.49500274658203,-47.055999755859375 -126.95600128173828,-28.468000411987305 C-129.88299560546875,-6.361999988555908 -133,44 -127.5,64"/></g></g></g><g clip-path="url(#__lottie_element_4380)" transform="matrix(1,0,0,1,0,0)" opacity="1" style="display: none;"><g transform="matrix(0.8260965347290039,0.0640806183218956,-0.07361925393342972,0.9975335597991943,259.15167236328125,268.8443603515625)" opacity="1" style="display: block;"><g opacity="1" transform="matrix(1,0,0,1,0,0)"><path fill="rgb(0,163,84)" fill-opacity="1" d=" M89.73300170898438,-37.402000427246094 C80.74099731445312,-38.31999969482422 66.5479965209961,-37.09299850463867 52.999000549316406,-32.75 C33.499000549316406,-26.5 51.94499969482422,-13.074000358581543 74.22899627685547,-19.131999969482422 C96.51300048828125,-25.190000534057617 101.58899688720703,-36.19200134277344 89.73300170898438,-37.402000427246094z"/><path stroke-linecap="butt" stroke-linejoin="miter" fill-opacity="0" stroke-miterlimit="4" stroke="rgb(1,73,36)" stroke-opacity="1" stroke-width="37" d=" M89.73300170898438,-37.402000427246094 C80.74099731445312,-38.31999969482422 66.5479965209961,-37.09299850463867 52.999000549316406,-32.75 C33.499000549316406,-26.5 51.94499969482422,-13.074000358581543 74.22899627685547,-19.131999969482422 C96.51300048828125,-25.190000534057617 101.58899688720703,-36.19200134277344 89.73300170898438,-37.402000427246094z"/></g></g><g transform="matrix(0.840843915939331,-0.15494030714035034,0.15494030714035034,0.840843915939331,313.65924072265625,218.59754943847656)" opacity="1" style="display: block;"><g opacity="1" transform="matrix(-0.15926091372966766,-0.987236499786377,0.987236499786377,-0.15926091372966766,0,0)"><path fill="rgb(210,250,255)" fill-opacity="1" d=" M-116.197998046875,-359.3380126953125 C-233.75399780273438,-363.1789855957031 -276.7239990234375,-255.88099670410156 -267.8389892578125,-184.08099365234375 C-258.29901123046875,-106.98999786376953 -197.39999389648438,-69.47100067138672 -100.33799743652344,-61.525001525878906 C-36.766998291015625,-56.32099914550781 49.904998779296875,-129.90699768066406 51.95500183105469,-205.4239959716797 C54.005001068115234,-280.9410095214844 17.792999267578125,-354.96099853515625 -116.197998046875,-359.3380126953125z"/><path stroke-linecap="butt" stroke-linejoin="miter" fill-opacity="0" stroke-miterlimit="4" stroke="rgb(64,184,225)" stroke-opacity="1" stroke-width="12" d=" M-116.197998046875,-359.3380126953125 C-233.75399780273438,-363.1789855957031 -276.7239990234375,-255.88099670410156 -267.8389892578125,-184.08099365234375 C-258.29901123046875,-106.98999786376953 -197.39999389648438,-69.47100067138672 -100.33799743652344,-61.525001525878906 C-36.766998291015625,-56.32099914550781 49.904998779296875,-129.90699768066406 51.95500183105469,-205.4239959716797 C54.005001068115234,-280.9410095214844 17.792999267578125,-354.96099853515625 -116.197998046875,-359.3380126953125z"/></g></g><g transform="matrix(0.840843915939331,-0.15494030714035034,0.15494030714035034,0.840843915939331,313.65924072265625,218.59754943847656)" opacity="1" style="display: block;"><g opacity="1" transform="matrix(-0.15926091372966766,-0.987236499786377,0.987236499786377,-0.15926091372966766,12.805999755859375,11.579000473022461)"><path stroke-linecap="round" stroke-linejoin="round" fill-opacity="0" stroke="rgb(255,255,255)" stroke-opacity="1" stroke-width="30" d=" M13.76099967956543,-296.0679931640625 C-45.72800064086914,-351.73199462890625 -134.39199829101562,-334.26800537109375 -152.7270050048828,-325.94000244140625"/></g></g><g transform="matrix(0.9266160726547241,-0.01988939195871353,0.01988939195871353,0.9266160726547241,281.020751953125,212.2761688232422)" opacity="1" style="display: block;"><g opacity="1" transform="matrix(1,0,0,1,0,0)"><path fill="rgb(232,29,29)" fill-opacity="1" d=" M-190.4969940185547,-74.17900085449219 C-202.47000122070312,-65.43599700927734 -195.98599243164062,-28.6200008392334 -203.21600341796875,-1.1950000524520874 C-213.7050018310547,38.5880012512207 -222.0030059814453,78.76200103759766 -180.79200744628906,114.86900329589844 C-156.06300354003906,136.53500366210938 -112.7229995727539,72.49299621582031 -108.75199890136719,20.823999404907227 C-105,-28 -129.73399353027344,-118.55000305175781 -190.4969940185547,-74.17900085449219z"/><path stroke-linecap="butt" stroke-linejoin="miter" fill-opacity="0" stroke-miterlimit="4" stroke="rgb(154,3,3)" stroke-opacity="1" stroke-width="12" d=" M-190.4969940185547,-74.17900085449219 C-202.47000122070312,-65.43599700927734 -195.98599243164062,-28.6200008392334 -203.21600341796875,-1.1950000524520874 C-213.7050018310547,38.5880012512207 -222.0030059814453,78.76200103759766 -180.79200744628906,114.86900329589844 C-156.06300354003906,136.53500366210938 -112.7229995727539,72.49299621582031 -108.75199890136719,20.823999404907227 C-105,-28 -129.73399353027344,-118.55000305175781 -190.4969940185547,-74.17900085449219z"/></g></g><g transform="matrix(0.999241828918457,0.0390046164393425,-0.0390046164393425,0.999241828918457,234.89541625976562,253.13645935058594)" opacity="0.33" style="display: block;"><g opacity="1" transform="matrix(1.4820343255996704,-0.37311387062072754,0.296827495098114,1.179019570350647,-77.625,-41.44499969482422)"><path fill="rgb(154,3,3)" fill-opacity="1" d=" M0,-44.554500579833984 C10.141162872314453,-44.554500579833984 18.375,-24.589628219604492 18.375,0 C18.375,24.589628219604492 10.141162872314453,44.554500579833984 0,44.554500579833984 C-10.141162872314453,44.554500579833984 -18.375,24.589628219604492 -18.375,0 C-18.375,-24.589628219604492 -10.141162872314453,-44.554500579833984 0,-44.554500579833984z"/></g></g><g transform="matrix(0.8547966480255127,-0.0186447910964489,0.0186447910964489,0.8547966480255127,260.2063293457031,251.1896514892578)" opacity="1" style="display: block;"><g opacity="1" transform="matrix(1,0,0,1,0,0)"><path fill="rgb(255,32,32)" fill-opacity="1" d=" M-64,-167 C-55,-203 -26.36400032043457,-238.3090057373047 -13.17199993133545,-243.5970001220703 C0.2029999941587448,-248.95799255371094 21.804000854492188,-249.8459930419922 37.62900161743164,-245.62600708007812 C44.92499923706055,-243.68099975585938 52.702999114990234,-227.8470001220703 56.79600143432617,-212.84800720214844 C56.29600143432617,-200.34800720214844 67,-173.5 70.5,-168.5"/><path stroke-linecap="round" stroke-linejoin="round" fill-opacity="0" stroke="rgb(154,3,3)" stroke-opacity="1" stroke-width="10" d=" M-64,-167 C-55,-203 -26.36400032043457,-238.3090057373047 -13.17199993133545,-243.5970001220703 C0.2029999941587448,-248.95799255371094 21.804000854492188,-249.8459930419922 37.62900161743164,-245.62600708007812 C44.92499923706055,-243.68099975585938 52.702999114990234,-227.8470001220703 56.79600143432617,-212.84800720214844 C56.29600143432617,-200.34800720214844 67,-173.5 70.5,-168.5"/></g></g><g transform="matrix(0.8547966480255127,-0.0186447910964489,0.0186447910964489,0.8547966480255127,260.2063293457031,251.1896514892578)" opacity="1" style="display: block;"><g opacity="1" transform="matrix(1,0,0,1,0,0)"><path fill="rgb(210,250,255)" fill-opacity="1" d=" M3.6549999713897705,-197.52200317382812 C-60.869998931884766,-197.02200317382812 -87,-184 -87,-148.5 C-87,-112.99600219726562 -33.46799850463867,-124.5 1.4229999780654907,-124.5 C36.31399917602539,-124.5 86.5,-116 86.5,-150.5 C86.5,-185 68.18000030517578,-198.02200317382812 3.6549999713897705,-197.52200317382812z"/><path stroke-linecap="butt" stroke-linejoin="miter" fill-opacity="0" stroke-miterlimit="4" stroke="rgb(64,184,225)" stroke-opacity="1" stroke-width="10" d=" M3.6549999713897705,-197.52200317382812 C-60.869998931884766,-197.02200317382812 -87,-184 -87,-148.5 C-87,-112.99600219726562 -33.46799850463867,-124.5 1.4229999780654907,-124.5 C36.31399917602539,-124.5 86.5,-116 86.5,-150.5 C86.5,-185 68.18000030517578,-198.02200317382812 3.6549999713897705,-197.52200317382812z"/></g></g><g transform="matrix(0.8547966480255127,-0.0186447910964489,0.0186447910964489,0.8547966480255127,260.2063293457031,251.1896514892578)" opacity="1" style="display: block;"><g opacity="1" transform="matrix(1,0,0,1,0,0)"><path stroke-linecap="round" stroke-linejoin="round" fill-opacity="0" stroke="rgb(255,255,255)" stroke-opacity="1" stroke-width="10" d=" M44.270999908447266,-182.37399291992188 C31.68400001525879,-184.19200134277344 16.058000564575195,-185.01499938964844 -2.069999933242798,-184.875 C-28.608999252319336,-184.66900634765625 -56.26300048828125,-180.22900390625 -69.58599853515625,-170.093994140625"/></g></g><g transform="matrix(0.9451674222946167,-0.09570059925317764,0.09570059925317764,0.9451674222946167,84.62405395507812,97.11131286621094)" opacity="1" style="display: block;"><g opacity="1" transform="matrix(1,0,0,1,167.13900756835938,160.63900756835938)"><path fill="rgb(0,163,84)" fill-opacity="1" d=" M12.756999969482422,-135.97799682617188 C-51.75400161743164,-140.70599365234375 -84.01899719238281,-105.4000015258789 -106.25399780273438,-47.382999420166016 C-118.99199676513672,-14.147000312805176 -132.4029998779297,10.883999824523926 -116.41200256347656,72.21600341796875 C-103.8270034790039,120.48600006103516 -69.28399658203125,129.06100463867188 -9.288000106811523,135.25900268554688 C48.73099899291992,141.2530059814453 99.71099853515625,124.06800079345703 120.53800201416016,85.00700378417969 C124.15799713134766,78.21700286865234 139.62399291992188,29.2810001373291 118.37000274658203,-42.244998931884766 C102.61000061035156,-95.28399658203125 75.98899841308594,-131.343994140625 12.756999969482422,-135.97799682617188z"/><path stroke-linecap="round" stroke-linejoin="round" fill-opacity="0" stroke="rgb(1,73,36)" stroke-opacity="1" stroke-width="10" d=" M12.756999969482422,-135.97799682617188 C-51.75400161743164,-140.70599365234375 -84.01899719238281,-105.4000015258789 -106.25399780273438,-47.382999420166016 C-118.99199676513672,-14.147000312805176 -132.4029998779297,10.883999824523926 -116.41200256347656,72.21600341796875 C-103.8270034790039,120.48600006103516 -69.28399658203125,129.06100463867188 -9.288000106811523,135.25900268554688 C48.73099899291992,141.2530059814453 99.71099853515625,124.06800079345703 120.53800201416016,85.00700378417969 C124.15799713134766,78.21700286865234 139.62399291992188,29.2810001373291 118.37000274658203,-42.244998931884766 C102.61000061035156,-95.28399658203125 75.98899841308594,-131.343994140625 12.756999969482422,-135.97799682617188z"/></g></g><g transform="matrix(0.9750840663909912,-0.4301982820034027,0.5220965147018433,1.1833800077438354,164.20751953125,142.15509033203125)" opacity="0.98" style="display: block;"><g opacity="1" transform="matrix(1,0,0,1,56.3489990234375,26.31100082397461)"><path fill="rgb(7,188,99)" fill-opacity="1" d=" M56.099998474121094,0 C56.099998474121094,14.392999649047852 30.98200035095215,26.06100082397461 -0.0010000000474974513,26.06100082397461 C-30.983999252319336,26.06100082397461 -56.099998474121094,14.392999649047852 -56.099998474121094,0 C-56.099998474121094,-14.392999649047852 -30.983999252319336,-26.06100082397461 -0.0010000000474974513,-26.06100082397461 C30.98200035095215,-26.06100082397461 56.099998474121094,-14.392999649047852 56.099998474121094,0z"/></g></g><g transform="matrix(0.9451674222946167,-0.09570059925317764,0.09570059925317764,0.9451674222946167,84.62405395507812,97.11131286621094)" opacity="1" style="display: block;"><g opacity="1" transform="matrix(1,0,0,1,167.13900756835938,160.63900756835938)"><path stroke-linecap="round" stroke-linejoin="round" fill-opacity="0" stroke="rgb(26,237,134)" stroke-opacity="1" stroke-width="10" d=" M16.08099937438965,-119.4749984741211 C-4.9120001792907715,-123.72000122070312 -52.6150016784668,-123.05999755859375 -83.19000244140625,-60.15800094604492"/></g></g><g transform="matrix(0.9451674222946167,-0.09570059925317764,0.09570059925317764,0.9451674222946167,84.62405395507812,97.11131286621094)" opacity="1" style="display: block;"><g opacity="1" transform="matrix(1,0,0,1,167.13900756835938,160.63900756835938)"><path stroke-linecap="round" stroke-linejoin="round" fill-opacity="0" stroke="rgb(7,188,101)" stroke-opacity="1" stroke-width="7" d=" M107.14600372314453,-39.104000091552734 C100.64299774169922,-63.07699966430664 91.22699737548828,-83.14399719238281 76.53199768066406,-97.85600280761719"/></g></g><g transform="matrix(1.286995768547058,0.010992215014994144,0.0010512071894481778,1.2358404397964478,156.83758544921875,179.1973114013672)" opacity="1" style="display: block;"><path stroke-linecap="butt" stroke-linejoin="miter" fill-opacity="0" stroke-miterlimit="4" stroke="rgb(0,0,0)" stroke-opacity="1" stroke-width="0" d=" M34.2,26.91 C31.27,38.18 21.95,45.51 13.38,43.28 C4.82,41.06 0.25,30.12 3.18,18.85 C6.11,7.58 15.43,0.25 23.99,2.48 C32.56,4.7 37.13,15.64 34.2,26.91z"/><g opacity="1" transform="matrix(1,0,0,1,18.687999725341797,22.8799991607666)"><path fill="rgb(0,0,0)" fill-opacity="1" d=" M15.508999824523926,4.0320000648498535 C12.579000473022461,15.300000190734863 3.259999990463257,22.6299991607666 -5.304999828338623,20.402999877929688 C-13.871000289916992,18.176000595092773 -18.43899917602539,7.236000061035156 -15.508999824523926,-4.0320000648498535 C-12.579999923706055,-15.300000190734863 -3.260999917984009,-22.6299991607666 5.303999900817871,-20.402999877929688 C13.869000434875488,-18.176000595092773 18.43899917602539,-7.236000061035156 15.508999824523926,4.0320000648498535z"/></g></g><g transform="matrix(1.2371175289154053,0.10586777329444885,-0.09898550808429718,1.196067214012146,249.5781707763672,221.3019256591797)" opacity="1" style="display: block;"><g opacity="1" transform="matrix(1,0,0,1,0,0)"><path stroke-linecap="butt" stroke-linejoin="miter" fill-opacity="0" stroke-miterlimit="4" stroke="rgb(0,0,0)" stroke-opacity="1" stroke-width="8" d=" M-67.28311157226562,-38.18572235107422 C-67.28311157226562,-38.18572235107422 -54.642154693603516,-54.40358352661133 -37.83566665649414,-48.88731384277344"/></g></g><g transform="matrix(0.8494172692298889,0.007254858035594225,0.0006937879952602088,0.8156547546386719,169.2533416748047,200.8964080810547)" opacity="1" style="display: block;"><g opacity="1" transform="matrix(1,0,0,1,6.136000156402588,6.625999927520752)"><path fill="rgb(255,255,255)" fill-opacity="1" d=" M5.886000156402588,0 C5.886000156402588,3.5220000743865967 3.250999927520752,6.375999927520752 0,6.375999927520752 C-3.250999927520752,6.375999927520752 -5.886000156402588,3.5220000743865967 -5.886000156402588,0 C-5.886000156402588,-3.5220000743865967 -3.250999927520752,-6.375999927520752 0,-6.375999927520752 C3.250999927520752,-6.375999927520752 5.886000156402588,-3.5220000743865967 5.886000156402588,0z"/></g></g><g transform="matrix(-1.2776986360549927,-0.010912788100540638,0.0010512071894481778,1.2358404397964478,342.9019470214844,192.31430053710938)" opacity="1" style="display: block;"><path stroke-linecap="butt" stroke-linejoin="miter" fill-opacity="0" stroke-miterlimit="4" stroke="rgb(0,0,0)" stroke-opacity="1" stroke-width="0" d=" M34.2,26.91 C31.27,38.18 21.95,45.51 13.38,43.28 C4.82,41.06 0.25,30.12 3.18,18.85 C6.11,7.58 15.43,0.25 23.99,2.48 C32.56,4.7 37.13,15.64 34.2,26.91z"/><g opacity="1" transform="matrix(1,0,0,1,18.687999725341797,22.8799991607666)"><path fill="rgb(0,0,0)" fill-opacity="1" d=" M15.508999824523926,4.0320000648498535 C12.579000473022461,15.300000190734863 3.259999990463257,22.6299991607666 -5.304999828338623,20.402999877929688 C-13.871000289916992,18.176000595092773 -18.43899917602539,7.236000061035156 -15.508999824523926,-4.0320000648498535 C-12.579999923706055,-15.300000190734863 -3.260999917984009,-22.6299991607666 5.303999900817871,-20.402999877929688 C13.869000434875488,-18.176000595092773 18.43899917602539,-7.236000061035156 15.508999824523926,4.0320000648498535z"/></g></g><g transform="matrix(-0.8432716727256775,-0.011800481006503105,-0.004057467915117741,0.8150697350502014,320.24591064453125,214.48878479003906)" opacity="1" style="display: block;"><g opacity="1" transform="matrix(1,0,0,1,6.136000156402588,6.625999927520752)"><path fill="rgb(255,255,255)" fill-opacity="1" d=" M5.886000156402588,0 C5.886000156402588,3.5220000743865967 3.250999927520752,6.375999927520752 0,6.375999927520752 C-3.250999927520752,6.375999927520752 -5.886000156402588,3.5220000743865967 -5.886000156402588,0 C-5.886000156402588,-3.5220000743865967 -3.250999927520752,-6.375999927520752 0,-6.375999927520752 C3.250999927520752,-6.375999927520752 5.886000156402588,-3.5220000743865967 5.886000156402588,0z"/></g></g><g transform="matrix(0.826202392578125,0.06354605406522751,-0.07316635549068451,0.997488260269165,259.15673828125,268.8807373046875)" opacity="1" style="display: block;"><g opacity="1" transform="matrix(1,0,0,1,0,0)"><path fill="rgb(0,163,84)" fill-opacity="1" d=" M89.73300170898438,-37.402000427246094 C80.74099731445312,-38.31999969482422 66.5479965209961,-37.09299850463867 52.999000549316406,-32.75 C33.499000549316406,-26.5 51.94499969482422,-13.074000358581543 74.22899627685547,-19.131999969482422 C96.51300048828125,-25.190000534057617 101.58899688720703,-36.19200134277344 89.73300170898438,-37.402000427246094z"/><path stroke-linecap="butt" stroke-linejoin="miter" fill-opacity="0" stroke-miterlimit="4" stroke="rgb(0,163,84)" stroke-opacity="1" stroke-width="17" d=" M89.73300170898438,-37.402000427246094 C80.74099731445312,-38.31999969482422 66.5479965209961,-37.09299850463867 52.999000549316406,-32.75 C33.499000549316406,-26.5 51.94499969482422,-13.074000358581543 74.22899627685547,-19.131999969482422 C96.51300048828125,-25.190000534057617 101.58899688720703,-36.19200134277344 89.73300170898438,-37.402000427246094z"/></g></g><g transform="matrix(-1.2386893033981323,-0.10669654607772827,-0.09839657694101334,1.1976983547210693,246.3997039794922,221.364990234375)" opacity="1" style="display: block;"><g opacity="1" transform="matrix(1,0,0,1,0,0)"><path stroke-linecap="butt" stroke-linejoin="miter" fill-opacity="0" stroke-miterlimit="4" stroke="rgb(0,0,0)" stroke-opacity="1" stroke-width="8" d=" M-71.25089263916016,-25.325809478759766 C-64.6658935546875,-34.636810302734375 -54.7974739074707,-36.59979248046875 -42.85756301879883,-31.819143295288086"/></g></g><g transform="matrix(1,0,0,1,256,256)" opacity="1" style="display: block;"/><g transform="matrix(0.7561339139938354,-0.07656048238277435,0.07656048238277435,0.7561339139938354,127.80793762207031,174.572021484375)" opacity="1" style="display: block;"><g opacity="1" transform="matrix(1,0,0,1,165.3509979248047,151.63800048828125)"><path fill="rgb(255,77,68)" fill-opacity="1" d=" M12.588000297546387,-39.516998291015625 C-65.70500183105469,-45.16299819946289 -142.0659942626953,-32.09400177001953 -140.8090057373047,10.317000389099121 C-138.5449981689453,86.7229995727539 -73.0780029296875,112.6500015258789 -7.77400016784668,116.25700378417969 C72.1969985961914,120.67500305175781 136.33700561523438,77.76200103759766 141.9510040283203,27.34600067138672 C149.35699462890625,-24.56800079345703 57.902000427246094,-36.249000549316406 12.588000297546387,-39.516998291015625z"/><path stroke-linecap="round" stroke-linejoin="round" fill-opacity="0" stroke="rgb(185,37,27)" stroke-opacity="1" stroke-width="10" d=" M12.588000297546387,-39.516998291015625 C-65.70500183105469,-45.16299819946289 -142.0659942626953,-32.09400177001953 -140.8090057373047,10.317000389099121 C-138.5449981689453,86.7229995727539 -73.0780029296875,112.6500015258789 -7.77400016784668,116.25700378417969 C72.1969985961914,120.67500305175781 136.33700561523438,77.76200103759766 141.9510040283203,27.34600067138672 C149.35699462890625,-24.56800079345703 57.902000427246094,-36.249000549316406 12.588000297546387,-39.516998291015625z"/></g></g><g transform="matrix(0.8744964599609375,0.12581020593643188,-0.12157727777957916,0.845073938369751,211.4375762939453,218.73179626464844)" opacity="1" style="display: block;"><g opacity="1" transform="matrix(1,0,0,1,46.430999755859375,41.23099899291992)"><path fill="rgb(93,100,119)" fill-opacity="1" d=" M39.016998291015625,-42.4109992980957 C26.308000564575195,-61.26499938964844 10.20199966430664,-70.40299987792969 -6.123000144958496,-69.14199829101562 C-23.549999237060547,-67.60700225830078 -35.24100112915039,-55.29899978637695 -45.72200012207031,-39.91999816894531 C-35.80400085449219,-25.052000045776367 -16.812000274658203,-17.527000427246094 -0.21199999749660492,-18.829999923706055 C16.38800048828125,-20.073999404907227 33.106998443603516,-26.584999084472656 39.016998291015625,-42.4109992980957z"/><path stroke-linecap="round" stroke-linejoin="round" fill-opacity="0" stroke="rgb(0,0,0)" stroke-opacity="1" stroke-width="10" d=" M39.016998291015625,-42.4109992980957 C26.308000564575195,-61.26499938964844 10.20199966430664,-70.40299987792969 -6.123000144958496,-69.14199829101562 C-23.549999237060547,-67.60700225830078 -35.24100112915039,-55.29899978637695 -45.72200012207031,-39.91999816894531 C-35.80400085449219,-25.052000045776367 -16.812000274658203,-17.527000427246094 -0.21199999749660492,-18.829999923706055 C16.38800048828125,-20.073999404907227 33.106998443603516,-26.584999084472656 39.016998291015625,-42.4109992980957z"/></g></g><g transform="matrix(0.8744964599609375,0.12581020593643188,-0.12157727777957916,0.845073938369751,211.4375762939453,218.73179626464844)" opacity="1" style="display: block;"><g opacity="1" transform="matrix(1,0,0,1,46.430999755859375,41.23099899291992)"><path stroke-linecap="round" stroke-linejoin="round" fill-opacity="0" stroke="rgb(184,184,184)" stroke-opacity="1" stroke-width="10" d=" M-7.577000141143799,-58.823001861572266 C-11.79699993133545,-55.83100128173828 -18.007999420166016,-50.000999450683594 -19.360000610351562,-46.742000579833984"/></g></g><g transform="matrix(0.8744964599609375,0.12581020593643188,-0.12157727777957916,0.845073938369751,211.40435791015625,218.7270050048828)" opacity="1" style="display: block;"><g opacity="1" transform="matrix(1,0,0,1,46.430999755859375,41.23099899291992)"><path fill="rgb(154,3,3)" fill-opacity="1" d=" M34.17499923706055,-42.0620002746582 C15.904000282287598,-50.70899963378906 -16.978185653686523,-48.86446762084961 -40.27199935913086,-39.34700012207031 C-18.391250610351562,-50.367984771728516 16.67099952697754,-50.595001220703125 34.17499923706055,-42.0620002746582z"/><path stroke-linecap="round" stroke-linejoin="round" fill-opacity="0" stroke="rgb(0,0,0)" stroke-opacity="1" stroke-width="8" d=" M34.17499923706055,-42.0620002746582 C15.904000282287598,-50.70899963378906 -16.978185653686523,-48.86446762084961 -40.27199935913086,-39.34700012207031 C-18.391250610351562,-50.367984771728516 16.67099952697754,-50.595001220703125 34.17499923706055,-42.0620002746582z"/></g></g><g transform="matrix(0.9285933971405029,-0.019931834191083908,0.019868170842528343,0.9256274104118347,263.15106201171875,225.28665161132812)" opacity="1" style="display: block;"><g opacity="1" transform="matrix(1,0,0,1,0,0)"><path fill="rgb(232,29,29)" fill-opacity="1" d=" M-183.62240600585938,-8.880599975585938 C-222.2823944091797,105.84600067138672 -175.97999572753906,214.97999572753906 -119.90799713134766,248.76300048828125 C-83,271 -28.924999237060547,266.9599914550781 11,256 C62,242 92.82240295410156,224.9333953857422 106.14119720458984,188.7519989013672 C117.58480072021484,157.65220642089844 135.25619506835938,132.5709991455078 112.21019744873047,101.40399932861328 C132.32420349121094,87.62200164794922 157.44020080566406,67.8832015991211 169.5030059814453,56.99100112915039 C196.8791961669922,32.27180099487305 184.1479949951172,-27.797199249267578 134.42039489746094,-10.873000144958496 C114.17839813232422,-3.983799934387207 74.13999938964844,13.930000305175781 35.310001373291016,29.868000030517578 C-33.63800048828125,58.167999267578125 -129.98019409179688,71.89939880371094 -137.75799560546875,-18.957599639892578"/><path stroke-linecap="round" stroke-linejoin="round" fill-opacity="0" stroke="rgb(154,3,3)" stroke-opacity="1" stroke-width="12" d=" M-183.62240600585938,-8.880599975585938 C-222.2823944091797,105.84600067138672 -175.97999572753906,214.97999572753906 -119.90799713134766,248.76300048828125 C-83,271 -28.924999237060547,266.9599914550781 11,256 C62,242 92.82240295410156,224.9333953857422 106.14119720458984,188.7519989013672 C117.58480072021484,157.65220642089844 135.25619506835938,132.5709991455078 112.21019744873047,101.40399932861328 C132.32420349121094,87.62200164794922 157.44020080566406,67.8832015991211 169.5030059814453,56.99100112915039 C196.8791961669922,32.27180099487305 184.1479949951172,-27.797199249267578 134.42039489746094,-10.873000144958496 C114.17839813232422,-3.983799934387207 74.13999938964844,13.930000305175781 35.310001373291016,29.868000030517578 C-33.63800048828125,58.167999267578125 -129.98019409179688,71.89939880371094 -137.75799560546875,-18.957599639892578"/></g></g><g transform="matrix(0.9285933971405029,-0.019931834191083908,0.019868170842528343,0.9256274104118347,263.15106201171875,225.28665161132812)" opacity="1" style="display: block;"><g opacity="1" transform="matrix(1,0,0,1,0,0)"><path fill="rgb(255,32,32)" fill-opacity="1" d=" M-151.9810028076172,-9.029000282287598 C-162.73899841308594,-13.640000343322754 -164.98199462890625,11.470000267028809 -166.61599731445312,32.02799987792969 C-175.31100463867188,141.3820037841797 -144.0030059814453,191.53900146484375 -99.98400115966797,218.05999755859375 C-71.00900268554688,235.51699829101562 -22.55900001525879,227.8459930419922 8.784000396728516,219.24200439453125 C48.82099914550781,208.25100708007812 62.512306213378906,201.68113708496094 74.18293762207031,175.6345672607422 C82.8440170288086,156.30516052246094 108.51799774169922,120.97100067138672 75.23799896240234,109.87799835205078 C91.02799987792969,99.05899810791016 114.03923797607422,80.10725402832031 123.18721008300781,71.6621322631836 C143.94863891601562,52.49528503417969 121.35958099365234,4.285903453826904 83.41094207763672,17.67027473449707 C67.9638671875,23.118408203125 58.35100173950195,29.207000732421875 27.868000030517578,41.71900177001953 C-26.259000778198242,63.93600082397461 -113.48100280761719,75.47100067138672 -135.9810028076172,31.364999771118164 C-140.03199768066406,23.423999786376953 -137.9810028076172,-3.0290000438690186 -151.9810028076172,-9.029000282287598z"/></g></g><g transform="matrix(0.9999960660934448,0.06509740650653839,-0.06544308364391327,0.9968138933181763,228.5279998779297,261.9913024902344)" opacity="1" style="display: block;"><g opacity="1" transform="matrix(1,0,0,1,0,0)"><path stroke-linecap="round" stroke-linejoin="round" fill-opacity="0" stroke="rgb(255,32,32)" stroke-opacity="1" stroke-width="8" d=" M131.7969970703125,55.47600173950195 C137.69700622558594,60.67900085449219 144.90536499023438,69.54700469970703 141.92431640625,87.99093627929688 C138.16769409179688,110.41285705566406 130.75537109375,141.12355041503906 113.23350524902344,153.12277221679688"/></g></g><g transform="matrix(0.9056392908096313,-0.20561645925045013,0.2061503827571869,0.9027209877967834,118.89061737060547,271.4671325683594)" opacity="1" style="display: block;"><g opacity="1" transform="matrix(1,0,0,1,106.37000274658203,119.81800079345703)"><path stroke-linecap="round" stroke-linejoin="round" fill-opacity="0" stroke="rgb(255,255,255)" stroke-opacity="1" stroke-width="10" d=" M-2.947999954223633,-64.51499938964844 C-18.672000885009766,-8.932000160217285 -18.672000885009766,49.03099822998047 -2.947999954223633,104.61399841308594"/></g><g opacity="1" transform="matrix(1,0,0,1,105.26799774169922,127.74099731445312)"><path stroke-linecap="round" stroke-linejoin="round" fill-opacity="0" stroke="rgb(255,255,255)" stroke-opacity="1" stroke-width="10" d=" M59.49599838256836,-23.312999725341797 C9.427000045776367,-4.49399995803833 -38.67100143432617,24.041000366210938 -80.87699890136719,61.698001861572266"/></g><g opacity="1" transform="matrix(1,0,0,1,105.26799774169922,111.89600372314453)"><path stroke-linecap="round" stroke-linejoin="round" fill-opacity="0" stroke="rgb(255,255,255)" stroke-opacity="1" stroke-width="10" d=" M59.49599838256836,63.4119987487793 C9.427000045776367,44.59299850463867 -38.67100143432617,16.058000564575195 -80.87699890136719,-21.599000930786133"/></g><g opacity="1" transform="matrix(1,0,0,1,101.96299743652344,119.81900024414062)"><path stroke-linecap="round" stroke-linejoin="round" fill-opacity="0" stroke="rgb(255,255,255)" stroke-opacity="1" stroke-width="10" d=" M-9.116000175476074,-7.290999889373779 C0.19300000369548798,-13.390999794006348 9.682999610900879,-19.069000244140625 19.312999725341797,-24.320999145507812 C16.527000427246094,-13.97599983215332 14.305999755859375,-3.490000009536743 12.661999702453613,7.103000164031982 C22.374000549316406,11.734999656677246 32.19499969482422,16.052000045776367 42.10599899291992,20.048999786376953 C32.19499969482422,24.047000885009766 22.374000549316406,28.36400032043457 12.661999702453613,32.99599838256836 C14.305999755859375,43.59000015258789 16.527000427246094,54.07500076293945 19.312999725341797,64.41899871826172 C9.682999610900879,59.167999267578125 0.19300000369548798,53.48899841308594 -9.116000175476074,47.38999938964844 C-17.236000061035156,54.612998962402344 -25.10300064086914,62.237998962402344 -32.67599868774414,70.25199890136719 C-33.35300064086914,58.27000045776367 -33.362998962402344,46.32500076293945 -32.720001220703125,34.45800018310547 C-42.83700180053711,29.97599983215332 -52.86199951171875,25.172000885009766 -62.77299880981445,20.048999786376953 C-52.86199951171875,14.927000045776367 -42.83700180053711,10.123000144958496 -32.720001220703125,5.640999794006348 C-33.362998962402344,-6.2270002365112305 -33.35300064086914,-18.17099952697754 -32.67599868774414,-30.152999877929688 C-25.10300064086914,-22.138999938964844 -17.236000061035156,-14.515000343322754 -9.116000175476074,-7.290999889373779z"/></g><g opacity="1" transform="matrix(1,0,0,1,111.15299987792969,47.37300109863281)"><path stroke-linecap="round" stroke-linejoin="round" fill-opacity="0" stroke="rgb(255,255,255)" stroke-opacity="1" stroke-width="10" d=" M-31.45199966430664,18.43199920654297 C-26.007999420166016,24.965999603271484 -20.367000579833984,31.270000457763672 -14.54699993133545,37.33599853515625 C-6.8470001220703125,33.04399871826172 0.9419999718666077,29.016000747680664 8.79800033569336,25.250999450683594"/></g><g opacity="1" transform="matrix(1,0,0,1,39.16699981689453,75.0989990234375)"><path stroke-linecap="round" stroke-linejoin="round" fill-opacity="0" stroke="rgb(255,255,255)" stroke-opacity="1" stroke-width="10" d=" M-16.17799949645996,45.06100082397461 C-8.201000213623047,41.2239990234375 -0.16099999845027924,37.584999084472656 7.927999973297119,34.14400100708008 C7.890999794006348,24.36199951171875 8.276000022888184,14.543999671936035 9.092000007629395,4.710000038146973"/></g><g opacity="1" transform="matrix(1,0,0,1,39.16699981689453,164.53799438476562)"><path stroke-linecap="round" stroke-linejoin="round" fill-opacity="0" stroke="rgb(255,255,255)" stroke-opacity="1" stroke-width="10" d=" M9.092000007629395,35.388999938964844 C8.274999618530273,25.55500030517578 7.889999866485596,15.737000465393066 7.927000045776367,5.954999923706055 C-0.16200000047683716,2.5139999389648438 -8.201000213623047,-1.125 -16.17799949645996,-4.961999893188477"/></g><g opacity="1" transform="matrix(1,0,0,1,111.15299987792969,192.26300048828125)"><path stroke-linecap="round" stroke-linejoin="round" fill-opacity="0" stroke="rgb(255,255,255)" stroke-opacity="1" stroke-width="10" d=" M8.79800033569336,14.847999572753906 C0.9419999718666077,11.083000183105469 -6.8470001220703125,7.056000232696533 -14.54699993133545,2.7639999389648438 C-20.367000579833984,8.829999923706055 -26.007999420166016,15.133000373840332 -31.45199966430664,21.66699981689453"/></g><g opacity="1" transform="matrix(1,0,0,1,167.33099365234375,154.52999877929688)"><path stroke-linecap="round" stroke-linejoin="round" fill-opacity="0" stroke="rgb(255,255,255)" stroke-opacity="1" stroke-width="10" d=" M-6.126999855041504,-0.4699999988079071 C-13.711000442504883,2.825000047683716 -21.229999542236328,6.311999797821045 -28.677000045776367,9.993000030517578 C-27.058000564575195,17.760000228881836 -25.10700035095215,25.454999923706055 -22.832000732421875,33.06100082397461"/></g><g opacity="1" transform="matrix(1,0,0,1,167.3300018310547,85.10800170898438)"><path stroke-linecap="round" stroke-linejoin="round" fill-opacity="0" stroke="rgb(255,255,255)" stroke-opacity="1" stroke-width="10" d=" M-22.832000732421875,7.0370001792907715 C-25.10700035095215,14.642999649047852 -27.05699920654297,22.336999893188477 -28.677000045776367,30.104000091552734 C-21.229000091552734,33.78499984741211 -13.710000038146973,37.27399826049805 -6.126999855041504,40.569000244140625"/></g></g><g transform="matrix(0.8547966480255127,-0.0186447910964489,0.0186447910964489,0.8547966480255127,260.2063293457031,251.1896514892578)" opacity="1" style="display: block;"><g opacity="1" transform="matrix(1,0,0,1,0,0)"><path fill="rgb(255,32,32)" fill-opacity="1" d=" M-18.5,-240.2220001220703 C-2.296999931335449,-256.6830139160156 37.891998291015625,-255.4600067138672 51.02299880981445,-252.72799682617188 C81.63300323486328,-246.36000061035156 80.37635803222656,-213.35011291503906 89.42134094238281,-178.77520751953125 C85.87092590332031,-178.1492462158203 82.62889099121094,-177.78683471679688 78.36465454101562,-178.02084350585938 C68.13399505615234,-194.04600524902344 44.82729721069336,-218.0768585205078 35.15837097167969,-234.70162963867188"/><path stroke-linecap="round" stroke-linejoin="round" fill-opacity="0" stroke="rgb(154,3,3)" stroke-opacity="1" stroke-width="10" d=" M-18.5,-240.2220001220703 C-2.296999931335449,-256.6830139160156 37.891998291015625,-255.4600067138672 51.02299880981445,-252.72799682617188 C81.63300323486328,-246.36000061035156 80.37635803222656,-213.35011291503906 89.42134094238281,-178.77520751953125 C85.87092590332031,-178.1492462158203 82.62889099121094,-177.78683471679688 78.36465454101562,-178.02084350585938 C68.13399505615234,-194.04600524902344 44.82729721069336,-218.0768585205078 35.15837097167969,-234.70162963867188"/></g></g><g transform="matrix(0.8547966480255127,-0.0186447910964489,0.0186447910964489,0.8547966480255127,249.20872497558594,226.5242919921875)" opacity="1" style="display: block;"><g opacity="1" transform="matrix(1,0,0,1,97.29900360107422,-144.4770050048828)"><path fill="rgb(210,250,255)" fill-opacity="1" d=" M0,-19.40250015258789 C10.708239555358887,-19.40250015258789 19.40250015258789,-10.708239555358887 19.40250015258789,0 C19.40250015258789,10.708239555358887 10.708239555358887,19.40250015258789 0,19.40250015258789 C-10.708239555358887,19.40250015258789 -19.40250015258789,10.708239555358887 -19.40250015258789,0 C-19.40250015258789,-10.708239555358887 -10.708239555358887,-19.40250015258789 0,-19.40250015258789z"/><path stroke-linecap="butt" stroke-linejoin="miter" fill-opacity="0" stroke-miterlimit="4" stroke="rgb(64,184,225)" stroke-opacity="1" stroke-width="10" d=" M0,-19.40250015258789 C10.708239555358887,-19.40250015258789 19.40250015258789,-10.708239555358887 19.40250015258789,0 C19.40250015258789,10.708239555358887 10.708239555358887,19.40250015258789 0,19.40250015258789 C-10.708239555358887,19.40250015258789 -19.40250015258789,10.708239555358887 -19.40250015258789,0 C-19.40250015258789,-10.708239555358887 -10.708239555358887,-19.40250015258789 0,-19.40250015258789z"/></g></g><g transform="matrix(0.44355398416519165,-0.009674783796072006,0.009674783796072006,0.44355398416519165,287.92626953125,166.2364044189453)" opacity="1" style="display: block;"><g opacity="1" transform="matrix(1,0,0,1,91.2770004272461,-153.50999450683594)"><path fill="rgb(255,255,255)" fill-opacity="1" d=" M0,-19.40250015258789 C10.708239555358887,-19.40250015258789 19.40250015258789,-10.708239555358887 19.40250015258789,0 C19.40250015258789,10.708239555358887 10.708239555358887,19.40250015258789 0,19.40250015258789 C-10.708239555358887,19.40250015258789 -19.40250015258789,10.708239555358887 -19.40250015258789,0 C-19.40250015258789,-10.708239555358887 -10.708239555358887,-19.40250015258789 0,-19.40250015258789z"/></g></g><g transform="matrix(0.9042173027992249,0,0,0.9042173027992249,237.11184692382812,239.35037231445312)" opacity="1" style="display: block;"><g opacity="1" transform="matrix(1,0,0,1,0,0)"><path stroke-linecap="round" stroke-linejoin="round" fill-opacity="0" stroke="rgb(64,184,225)" stroke-opacity="1" stroke-width="17" d=" M-225,-212 C-206,-245 -152,-227 -175,-202 C-198,-177 -209,-165 -202,-147"/></g><g opacity="1" transform="matrix(1,0,0,1,0,0)"><path stroke-linecap="butt" stroke-linejoin="miter" fill-opacity="0" stroke-miterlimit="4" stroke="rgb(64,184,225)" stroke-opacity="1" stroke-width="17" d=" M-193.0679931640625,-122.25 C-193.63600158691406,-128.5 -202.7270050048828,-126.7959976196289 -199.88600158691406,-121.68199920654297 C-197.0449981689453,-116.56800079345703 -192.5,-116 -193.0679931640625,-122.25z"/></g></g><g transform="matrix(0.9978726506233215,0.0652354434132576,-0.0652354434132576,0.9978726506233215,224.10047912597656,263.81585693359375)" opacity="1" style="display: block;"><g opacity="1" transform="matrix(1,0,0,1,0,0)"><path stroke-linecap="round" stroke-linejoin="round" fill-opacity="0" stroke="rgb(255,79,79)" stroke-opacity="1" stroke-width="10" d=" M-113.47799682617188,-105.94599914550781 C-118.61000061035156,-103.6240005493164 -125,-100.5 -123.5,-92 C-122,-83.5 -124.49500274658203,-47.055999755859375 -126.95600128173828,-28.468000411987305 C-129.88299560546875,-6.361999988555908 -133,44 -127.5,64"/></g></g></g></g></svg>